<svg xmlns="http://www.w3.org/2000/svg" width="256" height="256"><path fill="#1976D2" fill-opacity=".016" fill-rule="evenodd" d="M0 128.004v128.004l128.25-.254 128.25-.254.254-127.75L257.008 0H0zm.485.496c0 70.4.119 99.053.265 63.672s.146-92.98 0-128S.485 58.1.485 128.5"/><path fill="#1976D2" fill-opacity=".099" fill-rule="evenodd" d="M64.73 25.809c44.356 77.002 59.879 102.99 60.87 101.901.606-.666 3.786-5.935 7.068-11.71s16.849-29.263 30.149-52.194S187 21.861 187 21.556c0-.306-10.912-.547-24.25-.535l-24.25.021-5.444 9.729c-9.147 16.345-7.267 16.068-15.248 2.246L110.868 21H61.96zm-18.183 77.729c-10.592 2.905-19.648 8.351-28.047 16.864-9.02 9.143-13.359 16.816-16.539 29.251-5.83 22.794 2.311 47.071 21.039 62.735 19.705 16.483 48.681 18.783 71 5.637 14.663-8.636 26.653-24.998 29.52-40.281l.703-3.744h33.872l-.297-6.25-.298-6.25-16.16-.274-16.159-.275-.713-5.183c-1.905-13.849-7.684-25.112-18.399-35.859-8.109-8.132-17.461-13.604-28.069-16.424-6.878-1.828-24.707-1.798-31.453.053m137.678 14.664.275 16.298 5.719.299c7.086.37 6.959.725 6.569-18.299l-.288-14-6.275-.298-6.275-.299zm-130.926-7.158c-20.327 3.617-37.605 19.398-42.863 39.151-.777 2.918-1.412 9.13-1.412 13.805 0 15.083 4.366 26.136 14.618 37.004 21.251 22.527 56.481 22.571 77.6.097 10.561-11.239 14.82-21.756 14.82-36.601 0-23.444-14.132-43.523-35.96-51.093-7.662-2.657-19.355-3.688-26.803-2.363m5.201 6.62c-7.626.977-7.5.854-7.5 7.338v5.964l-5.047 2.558c-2.776 1.406-5.279 3.161-5.562 3.9-.552 1.439 1.73 7.576 4.251 11.429l1.539 2.352 3.348-4.973c4.263-6.33 11.315-12.361 18.63-15.932 5.596-2.733 5.735-2.9 5.787-6.983.041-3.161-.373-4.3-1.696-4.666-3.047-.841-10.637-1.386-13.75-.987m92.203 9.128c-2.037 2.086-3.703 4.239-3.703 4.784 0 .546 2.406 3.369 5.347 6.273 5.026 4.963 5.612 5.262 9.75 4.966 4.334-.31 4.408-.376 4.722-4.216.294-3.582-.153-4.379-5.468-9.75-3.184-3.217-6.049-5.849-6.367-5.849s-2.244 1.706-4.281 3.792m18.964 19.875c-1.265 1.265-.764 40.836.533 42.133.66.66 3.27 1.2 5.8 1.2s5.14-.54 5.8-1.2c.829-.829 1.2-5.933 1.2-16.5V157h5.309c8.855 0 9.111.468 9.691 17.669l.5 14.831h12l.304-12.5c.401-16.468-.22-20.265-4.02-24.593-5.129-5.842-7.12-6.407-22.568-6.407-7.635 0-14.183.3-14.549.667M82 156.251c0 .288 1.437 3.596 3.194 7.349 2.865 6.124 3.238 7.996 3.629 18.206l.436 11.381 3.12 1.927 3.121 1.928 3.21-3.771c3.45-4.053 8.29-13.19 8.29-15.65 0-.828-2.205-2.745-4.899-4.26l-4.9-2.754.133-5.77c.073-3.174-.381-6.284-1.008-6.911C95.191 156.791 82 155.249 82 156.251m140.667 5.416c-.367.366-.667 3.291-.667 6.5V174h34v-13h-16.333c-8.984 0-16.634.3-17 .667m-201.48 12.512c-1.753 1.109-3.183 2.536-3.177 3.169.017 1.993 4.613 10.972 7.91 15.451l3.164 4.3 5.379-3.078 5.379-3.077 4.775 3.028c2.626 1.665 5.307 3.028 5.957 3.028 1.284 0 8.426-9.832 8.426-11.6 0-.615-2.254-1.163-5.218-1.267-8.606-.305-16.576-3.196-25.345-9.193l-4.063-2.779zm131.563 23.559c-3.162 3.201-5.75 6.281-5.75 6.845 0 1.554 6.388 7.417 8.082 7.417.817 0 3.863-2.406 6.767-5.347 4.963-5.026 5.262-5.612 4.966-9.75-.312-4.361-.353-4.406-4.315-4.694-3.7-.269-4.431.145-9.75 5.529M184 217.5v16.595l6.25-.297 6.25-.298v-32l-6.25-.298-6.25-.297z"/><path fill="#1976D2" fill-opacity=".332" fill-rule="evenodd" d="M63 21.376c0 .207 9.497 16.745 21.105 36.75a56791 56791 0 0 1 30.75 53.055c5.305 9.175 9.955 16.375 10.333 16C126.39 125.992 186 22.746 186 21.854c0-.47-10.549-.854-23.441-.854h-23.442l-6.808 11.966c-3.745 6.581-7.055 11.981-7.356 12-.3.019-3.675-5.36-7.5-11.953L110.5 21.025l-23.75-.012c-13.062-.007-23.75.156-23.75.363m-11.749 81.665c-17.599 3.159-34.857 15.926-43.172 31.937C2.202 146.294.707 153.289 1.237 167c.383 9.936.873 12.588 3.606 19.5 7.141 18.064 20.43 30.344 40.157 37.107 7.744 2.656 27.21 2.664 35 .016 22.428-7.624 37.279-23.409 42.923-45.623 1.048-4.125 1.944-6.701 1.991-5.725.079 1.635 1.364 1.753 16.336 1.5l16.25-.275.299-5.726.299-5.725-16.798-.275-16.799-.274-.776-6.295c-2.757-22.367-20.689-43.481-42.704-50.28-7.542-2.33-22.141-3.253-29.77-1.884m133.189.255c-.274.713-.372 7.8-.219 15.75l.279 14.454 5.75.3 5.75.3V102h-5.531c-3.608 0-5.705.451-6.029 1.296M49.5 111.352c-28.508 7.346-46.338 35.804-40.074 63.96 2.406 10.814 6.793 18.908 14.49 26.731 10.633 10.809 23.441 16.179 38.584 16.179 9.624 0 16.411-1.642 24.821-6.005 30.854-16.009 38.945-54.714 17.224-82.389-5.054-6.439-15.719-13.977-24.045-16.993-7.356-2.665-23.429-3.434-31-1.483m4.5 7.539c-2.27.628-2.527 1.251-2.794 6.768-.291 6.008-.339 6.097-4.221 7.848-6.852 3.09-7.278 4.159-4.289 10.764 1.425 3.151 2.864 5.717 3.198 5.703.333-.014 2.181-2.347 4.106-5.185 3.637-5.361 12.416-12.521 19.75-16.109 3.85-1.883 4.25-2.424 4.25-5.748 0-3.464-.21-3.705-3.75-4.29-4.729-.782-12.981-.655-16.25.249m96.708 8.896-3.697 3.786 5.848 5.788c5.138 5.083 6.262 5.748 9.245 5.463 3.16-.301 3.418-.595 3.715-4.222.29-3.543-.164-4.388-4.966-9.25-2.906-2.944-5.546-5.352-5.866-5.352s-2.245 1.704-4.279 3.787M170 167.5V189h12v-32h6.443c9.168 0 9.557.741 9.557 18.223V189h12.135l-.318-16.43c-.362-18.766-.908-20.268-8.837-24.32-3.914-2-5.883-2.25-17.692-2.25H170zm-87-9.559c0 .518.415 1.197.922 1.511 2.487 1.537 5.465 14.275 5.594 23.928.131 9.726.176 9.903 2.906 11.333 2.569 1.346 2.953 1.283 5.234-.86 2.393-2.248 10.066-16.528 9.251-17.216-.224-.19-2.545-1.578-5.157-3.086L97 170.81v-6.288c0-5.676-.219-6.347-2.25-6.892-3.537-.948-11.75-.73-11.75.311m139.406 5.445c-.293.762-.391 3.349-.219 5.75l.313 4.364 16.75.274 16.75.274V162h-16.531c-13.166 0-16.64.282-17.063 1.386m-200.798 11.11c-1.04.787-2.351 1.585-2.914 1.773-1.418.472 5.58 14.703 8.646 17.582l2.505 2.352 5.071-2.851c4.233-2.38 5.36-2.646 6.827-1.612.966.682 3.423 2.142 5.459 3.245l3.702 2.007 2.416-3.246c1.328-1.785 3.158-4.418 4.067-5.85l1.651-2.603-6.373-.595c-7.575-.708-14.956-3.359-22.76-8.176-6.554-4.045-5.855-3.875-8.297-2.026m130.394 24.096-5.289 5.592 4.134 4.133 4.133 4.134 5.51-5.441c4.976-4.914 5.51-5.857 5.51-9.726V193h-4.355c-3.99 0-4.798.468-9.643 5.592m32.459 3.649c-.284.741-.392 8.025-.239 16.187l.278 14.841 5.5-.001 5.5-.001V201.5l-5.261-.303c-3.711-.213-5.414.095-5.778 1.044"/><path fill="#1976D2" fill-opacity=".55" fill-rule="evenodd" d="M88 21.601c0 1.089 36.326 63.402 36.938 63.364.46-.028 19.063-31.893 33.903-58.071L162.182 21l-11.341.011-11.341.011-6.878 12.009c-3.782 6.605-7.18 12.196-7.55 12.424-.37.229-3.846-5.067-7.725-11.769L110.294 21.5l-11.147-.283c-6.131-.155-11.147.018-11.147.384m82.23 146.149.27 20.75h11l.5-16 .5-16 6.208.008c3.719.005 6.726.525 7.5 1.296.888.886 1.448 5.886 1.792 15.992l.5 14.704 5.82.302 5.819.302-.319-15.983c-.354-17.698-.817-19.112-7.81-23.871-3.05-2.076-4.42-2.25-17.678-2.25h-14.373z"/></svg>